<svg width="201" height="90" viewBox="0 0 201 90" fill="none" xmlns="http://www.w3.org/2000/svg">
<path d="M78.575 45.234C78.3352 46.7505 78.2095 48.2828 78.199 49.818C78.1675 51.2841 78.319 52.7484 78.65 54.177C76.5802 54.8148 74.4278 55.144 72.262 55.154C70.5264 55.2723 68.7876 54.9761 67.189 54.29C66.0158 53.5372 65.1292 52.4125 64.671 51.096C63.4659 52.5109 61.982 53.6622 60.312 54.478C58.5465 55.1872 56.6525 55.52 54.751 55.455C53.2423 55.5014 51.7446 55.1842 50.3843 54.5301C49.0239 53.8761 47.8409 52.9044 46.935 51.697C44.981 49.1917 44.004 45.785 44.004 41.477C43.9307 37.0704 44.9643 32.7157 47.01 28.812C48.8731 25.2275 51.7134 22.2441 55.202 20.207C58.7956 18.1674 62.8706 17.1293 67.002 17.201C69.8262 17.155 72.6441 17.4835 75.382 18.178C77.9189 18.9003 80.3367 19.9892 82.559 21.41L78.575 45.234ZM66.928 29.226C66.3166 28.8584 65.612 28.6754 64.899 28.699C64.2423 28.7052 63.5951 28.8566 63.0038 29.1424C62.4125 29.4282 61.8918 29.8413 61.479 30.352C60.4112 31.6238 59.6295 33.1104 59.187 34.711C58.6434 36.4634 58.3647 38.2872 58.36 40.122C58.36 43.0794 59.387 44.5574 61.441 44.556C63.3443 44.556 64.4967 43.4037 64.898 41.099L66.928 29.226Z" fill="white"/>
<path d="M90.862 1.71797C92.7641 1.31225 94.7041 1.11111 96.649 1.11797C99.2043 1.11797 101.121 1.63163 102.398 2.65897C103.065 3.25155 103.586 3.99109 103.918 4.81924C104.251 5.64739 104.386 6.54148 104.314 7.43097C104.313 7.6445 104.3 7.8578 104.276 8.06997C104.25 8.29497 104.212 8.55897 104.163 8.85897L102.209 19.833C103.28 18.9258 104.519 18.2363 105.854 17.803C107.331 17.3754 108.864 17.1731 110.401 17.203C111.929 17.1437 113.449 17.4504 114.835 18.0975C116.22 18.7445 117.431 19.7132 118.367 20.923C120.321 23.403 121.298 26.8226 121.298 31.182C121.377 35.6174 120.33 40.0003 118.254 43.921C116.376 47.4975 113.523 50.4683 110.025 52.489C106.399 54.5102 102.301 55.5333 98.15 55.454C95.276 55.5055 92.4079 55.177 89.62 54.477C87.0825 53.7563 84.6645 52.6674 82.443 51.245L90.862 1.71797ZM98.152 43.655C98.7966 44.0041 99.5189 44.185 100.252 44.181C100.933 44.1751 101.603 44.0167 102.214 43.7175C102.826 43.4182 103.362 42.9858 103.784 42.452C104.876 41.1289 105.682 39.5935 106.151 37.943C106.714 36.1684 107.005 34.3187 107.015 32.457C107.015 29.4016 105.938 27.8736 103.783 27.873C101.829 27.873 100.652 29.0503 100.251 31.405L98.152 43.655Z" fill="white"/>
<path d="M12.603 1.71799C14.5067 1.31159 16.4484 1.1101 18.395 1.11699C20.9503 1.11699 22.8667 1.63066 24.144 2.65799C24.8113 3.25057 25.3317 3.99012 25.6642 4.81827C25.9967 5.64642 26.1322 6.54051 26.06 7.42999C26.0588 7.64352 26.0461 7.85683 26.022 8.06899C25.996 8.29399 25.958 8.55799 25.909 8.85799L23.952 19.832C25.0226 18.924 26.2601 18.2334 27.595 17.799C29.0718 17.3714 30.6048 17.1691 32.142 17.199C33.6701 17.1397 35.1902 17.4464 36.5759 18.0935C37.9615 18.7406 39.1725 19.7093 40.108 20.919C42.062 23.399 43.039 26.8187 43.039 31.178C43.118 35.6137 42.0707 39.9971 39.995 43.918C38.1171 47.4945 35.2638 50.4654 31.766 52.486C28.141 54.5075 24.0448 55.5317 19.895 55.454C17.021 55.5056 14.1529 55.177 11.365 54.477C8.82752 53.7563 6.40946 52.6674 4.18799 51.245L12.603 1.71799ZM19.895 43.655C20.5396 44.0041 21.2619 44.185 21.995 44.181C22.6755 44.1751 23.346 44.0167 23.9573 43.7175C24.5685 43.4183 25.1049 42.9858 25.527 42.452C26.6198 41.129 27.4261 39.5936 27.895 37.943C28.4581 36.1684 28.7494 34.3188 28.759 32.457C28.759 29.4017 27.6817 27.8737 25.527 27.873C23.573 27.873 22.3957 29.0503 21.995 31.405L19.895 43.655Z" fill="white"/>
<path d="M126.877 19.55C128.829 19.1398 130.82 18.9386 132.815 18.95C137.974 18.95 140.555 21.0543 140.556 25.263C140.556 25.5015 140.543 25.7399 140.517 25.977C140.492 26.202 140.454 26.441 140.404 26.69L137.023 46.532C136.743 48.0188 136.592 49.5271 136.572 51.04C136.544 52.2833 136.696 53.5241 137.023 54.724C134.693 55.8026 132.149 56.3419 129.582 56.302C126.827 56.302 124.848 55.8133 123.646 54.836C122.444 53.8586 121.844 52.2683 121.846 50.065C121.848 49.7254 121.873 49.3863 121.921 49.05C121.97 48.674 122.021 48.311 122.07 47.96L126.877 19.55ZM128.077 9.02798C128.02 7.93604 128.191 6.84422 128.579 5.82205C128.968 4.79988 129.564 3.86977 130.332 3.09098C131.14 2.34691 132.088 1.77106 133.121 1.39697C134.154 1.02287 135.251 0.858008 136.348 0.911979C138.108 0.858483 139.819 1.49184 141.12 2.67798C141.726 3.20562 142.212 3.85815 142.542 4.59086C142.873 5.32356 143.041 6.11911 143.036 6.92298C143.093 8.01507 142.922 9.10707 142.534 10.1294C142.145 11.1518 141.549 12.082 140.781 12.861C139.973 13.6047 139.026 14.1803 137.993 14.5544C136.961 14.9285 135.865 15.0935 134.768 15.04C132.995 15.1077 131.267 14.473 129.959 13.274C129.362 12.741 128.885 12.0865 128.561 11.3544C128.237 10.6223 128.074 9.82949 128.081 9.02898L128.077 9.02798Z" fill="white"/>
<path d="M149.386 1.71792C151.338 1.30726 153.328 1.10612 155.323 1.11792C157.878 1.11792 159.795 1.63159 161.072 2.65892C161.739 3.25136 162.26 3.99088 162.593 4.81907C162.925 5.64725 163.06 6.54142 162.988 7.43092C162.989 7.65683 162.977 7.8826 162.95 8.10692C162.925 8.30692 162.887 8.55759 162.837 8.85892L156.675 45.4589C156.574 46.2103 156.474 46.9243 156.375 47.6009C156.275 48.2853 156.225 48.9762 156.226 49.6679C156.188 51.0105 156.34 52.3518 156.677 53.6519C154.347 54.7302 151.803 55.2692 149.236 55.2289C146.481 55.2289 144.502 54.7403 143.299 53.7629C142.096 52.7856 141.496 51.1953 141.499 48.9919C141.524 48.108 141.624 47.2278 141.799 46.3609L149.386 1.71792Z" fill="white"/>
<path d="M197.016 45.234C196.777 46.7505 196.651 48.2828 196.641 49.818C196.61 51.284 196.761 52.7483 197.091 54.177C195.022 54.8148 192.869 55.144 190.704 55.154C188.968 55.2724 187.229 54.9762 185.63 54.29C184.457 53.5372 183.57 52.4125 183.112 51.096C181.907 52.5109 180.424 53.6622 178.754 54.478C176.989 55.187 175.094 55.5198 173.193 55.455C171.684 55.5014 170.187 55.1842 168.826 54.5301C167.466 53.876 166.283 52.9043 165.377 51.697C163.423 49.1917 162.446 45.785 162.446 41.477C162.373 37.0704 163.406 32.7158 165.452 28.812C167.315 25.2276 170.155 22.2441 173.643 20.207C177.237 18.1677 181.312 17.1296 185.443 17.201C188.267 17.155 191.085 17.4836 193.823 18.178C196.36 18.9003 198.778 19.9891 201 21.41L197.016 45.234ZM185.368 29.226C184.756 28.8587 184.052 28.6757 183.339 28.699C182.682 28.7051 182.035 28.8565 181.443 29.1422C180.852 29.428 180.331 29.8412 179.918 30.352C178.851 31.6241 178.07 33.1107 177.627 34.711C177.083 36.4633 176.804 38.2872 176.8 40.122C176.8 43.0793 177.827 44.5573 179.881 44.556C181.784 44.556 182.936 43.4037 183.338 41.099L185.368 29.226Z" fill="white"/>
<path d="M9.14205 69.48L6.84205 83.418H3.47305L5.77305 69.48H1.00005C0.931341 68.7023 1.13418 67.9249 1.57405 67.28C1.84504 67.051 2.15985 66.8798 2.49924 66.7766C2.83864 66.6735 3.19551 66.6406 3.54805 66.68H14.263C14.2695 67.2392 14.1851 67.7958 14.013 68.328C13.8822 68.7071 13.6094 69.0207 13.252 69.203C12.7674 69.4108 12.2417 69.5048 11.715 69.478L9.14205 69.48Z" fill="white"/>
<path d="M18.06 72.651C18.5343 72.1855 19.0884 71.8091 19.696 71.54C20.2269 71.3415 20.7903 71.2441 21.357 71.253C21.9823 71.2326 22.5996 71.3979 23.131 71.728C23.6072 72.0356 23.9675 72.493 24.155 73.028C24.3321 73.5424 24.4167 74.0841 24.405 74.628C24.397 75.2135 24.3391 75.7973 24.232 76.373L23.058 83.417H19.684L20.858 76.373C20.9247 76.0354 20.9582 75.6921 20.958 75.348C20.992 74.9695 20.8752 74.5929 20.633 74.3C20.4962 74.1823 20.3373 74.093 20.1656 74.0372C19.994 73.9814 19.8129 73.9603 19.633 73.975C19.3655 73.9762 19.1015 74.036 18.8595 74.15C18.6175 74.264 18.4033 74.4295 18.232 74.635C17.8094 75.1252 17.5402 75.729 17.458 76.371L16.284 83.415H12.915L15.832 65.808C16.2111 65.7387 16.5958 65.7052 16.981 65.708C17.4899 65.6728 17.9935 65.829 18.393 66.146C18.561 66.3082 18.6916 66.505 18.7757 66.7228C18.8598 66.9406 18.8954 67.174 18.88 67.407C18.88 67.507 18.88 67.607 18.868 67.707C18.856 67.807 18.846 67.907 18.83 68.007L18.06 72.651Z" fill="white"/>
<path d="M34.421 79.67C35.2703 80.0873 35.695 80.6123 35.695 81.245C35.6792 81.5588 35.5837 81.8634 35.4174 82.1301C35.2512 82.3967 35.0198 82.6166 34.745 82.769C33.6473 83.4848 32.3545 83.8422 31.045 83.792C30.3842 83.8374 29.7212 83.7453 29.0978 83.5216C28.4744 83.2978 27.9041 82.9472 27.423 82.492C26.5392 81.4809 26.0913 80.1612 26.177 78.821C26.1528 77.4429 26.4655 76.0797 27.088 74.85C27.6399 73.7451 28.4926 72.8185 29.548 72.177C30.6078 71.5537 31.8187 71.234 33.048 71.253C34.0048 71.2049 34.945 71.5171 35.683 72.128C36.0074 72.4145 36.2641 72.7694 36.4346 73.1671C36.6051 73.5649 36.6852 73.9955 36.669 74.428C36.699 75.0817 36.5579 75.732 36.2598 76.3146C35.9617 76.8972 35.5168 77.3919 34.969 77.75C33.5512 78.5913 31.915 78.9913 30.269 78.899C29.8857 78.899 29.6027 78.8907 29.42 78.874V79.024C29.4052 79.3221 29.4494 79.6201 29.5501 79.9011C29.6509 80.182 29.8061 80.4403 30.007 80.661C30.1979 80.8616 30.4288 81.0197 30.6849 81.1252C30.9409 81.2306 31.2162 81.281 31.493 81.273C32.0326 81.2794 32.5651 81.1505 33.042 80.898C33.5804 80.5867 34.0496 80.1689 34.421 79.67ZM30.399 76.898C31.2077 76.9253 32.008 76.7265 32.71 76.324C32.9878 76.1828 33.2218 75.9685 33.3869 75.7042C33.552 75.4399 33.6419 75.1356 33.647 74.824C33.6556 74.6821 33.6345 74.54 33.5851 74.4067C33.5357 74.2735 33.459 74.152 33.36 74.05C33.1273 73.8531 32.827 73.7548 32.523 73.776C32.1835 73.7768 31.8483 73.8508 31.54 73.993C31.2318 74.1352 30.9579 74.3422 30.737 74.6C30.1793 75.2497 29.8042 76.0358 29.65 76.878C29.8493 76.8913 30.099 76.898 30.399 76.898Z" fill="white"/>
<path d="M49.857 82.119C49.5021 82.6392 49.0202 83.0601 48.457 83.342C47.8694 83.6434 47.2174 83.7974 46.557 83.791C44.157 83.791 42.957 82.301 42.957 79.321C42.9388 77.8857 43.2551 76.4658 43.881 75.174C44.4233 74.0098 45.2632 73.0095 46.316 72.274C47.2966 71.599 48.4607 71.2412 49.651 71.249C49.9625 71.2553 50.2722 71.2973 50.574 71.374C50.8583 71.4352 51.1349 71.5274 51.399 71.649L52.373 65.804C52.7521 65.7347 53.1368 65.7012 53.522 65.704C54.7367 65.704 55.3444 66.2707 55.345 67.404C55.345 67.504 55.345 67.604 55.3341 67.704C55.3231 67.804 55.312 67.904 55.296 68.004L53.254 80.394C53.2025 80.6659 53.1777 80.9423 53.18 81.219C53.1648 81.9346 53.2832 82.6468 53.529 83.319C52.9622 83.6269 52.3249 83.7817 51.68 83.768C51.4487 83.7961 51.2139 83.7742 50.9917 83.7037C50.7696 83.6333 50.5651 83.5159 50.3923 83.3595C50.2194 83.2031 50.0821 83.0115 49.9898 82.7974C49.8975 82.5834 49.8522 82.3521 49.857 82.119ZM51.006 74.05C50.6094 73.8302 50.1589 73.7263 49.706 73.75C49.2102 73.7533 48.7249 73.8937 48.3039 74.1558C47.883 74.4179 47.5428 74.7915 47.321 75.235C46.6712 76.4762 46.3653 77.8687 46.435 79.268C46.435 80.584 46.9094 81.242 47.858 81.242C48.1524 81.2391 48.4425 81.1716 48.708 81.0442C48.9734 80.9169 49.2076 80.7328 49.394 80.505C49.8477 79.9887 50.1389 79.3501 50.231 78.669L51.006 74.05Z" fill="white"/>
<path d="M60.5721 83.792C59.9359 83.8359 59.2977 83.7425 58.7007 83.5182C58.1038 83.2939 57.562 82.9439 57.1121 82.492C56.2646 81.4631 55.8402 80.1503 55.9251 78.82C55.8978 77.4466 56.183 76.085 56.7591 74.838C57.2568 73.7504 58.0548 72.8276 59.0591 72.178C60.0664 71.553 61.2328 71.2322 62.4181 71.254C63.0531 71.2143 63.6892 71.312 64.283 71.5405C64.8769 71.769 65.4144 72.1229 65.8591 72.578C66.714 73.5943 67.1476 74.8991 67.0711 76.225C67.0983 77.6103 66.8165 78.9843 66.2461 80.247C65.765 81.3335 64.9748 82.2544 63.9741 82.895C62.948 83.5104 61.7682 83.8215 60.5721 83.792ZM59.2471 78.972C59.2127 79.5622 59.366 80.1482 59.6851 80.646C59.8172 80.8371 59.995 80.9921 60.2023 81.0969C60.4096 81.2017 60.6399 81.253 60.8721 81.246C61.3115 81.2262 61.7364 81.0833 62.0985 80.8336C62.4606 80.584 62.7453 80.2376 62.9201 79.834C63.5021 78.6783 63.7776 77.3926 63.7201 76.1C63.7546 75.5102 63.6016 74.9246 63.2831 74.427C63.1511 74.2358 62.9733 74.0807 62.7659 73.9759C62.5586 73.8711 62.3283 73.8199 62.0961 73.827C61.6565 73.8466 61.2313 73.9894 60.8691 74.2391C60.5068 74.4887 60.2219 74.8352 60.0471 75.239C59.4656 76.394 59.1905 77.6791 59.2481 78.971L59.2471 78.972Z" fill="white"/>
<path d="M73.436 83.792C72.8 83.8359 72.1619 83.7426 71.5651 83.5183C70.9683 83.294 70.4267 82.944 69.977 82.492C69.1292 81.4633 68.7048 80.1504 68.79 78.82C68.7646 77.4462 69.0519 76.0845 69.63 74.838C70.1278 73.7504 70.9257 72.8276 71.93 72.178C72.9377 71.5529 74.1044 71.2321 75.29 71.254C75.9231 71.2161 76.5569 71.3147 77.1485 71.5431C77.7401 71.7716 78.2757 72.1245 78.719 72.578C79.5733 73.5942 80.0066 74.8987 79.93 76.224C79.9572 77.6092 79.6757 78.9831 79.106 80.246C78.6235 81.3328 77.832 82.2536 76.83 82.894C75.8064 83.5083 74.6295 83.8197 73.436 83.792ZM72.112 78.972C72.0773 79.5622 72.2303 80.1481 72.549 80.646C72.6811 80.8371 72.8589 80.9922 73.0662 81.097C73.2736 81.2018 73.5038 81.253 73.736 81.246C74.1755 81.2263 74.6005 81.0835 74.9626 80.8338C75.3247 80.5841 75.6094 80.2377 75.784 79.834C76.3665 78.6785 76.642 77.3927 76.584 76.1C76.6185 75.5102 76.4656 74.9246 76.147 74.427C76.015 74.2358 75.8372 74.0808 75.6299 73.976C75.4226 73.8711 75.1923 73.8199 74.96 73.827C74.5205 73.8466 74.0953 73.9894 73.733 74.2391C73.3707 74.4888 73.0859 74.8353 72.911 75.239C72.3299 76.3942 72.0551 77.6792 72.113 78.971L72.112 78.972Z" fill="white"/>
<path d="M89.3971 75.4C89.3488 75.0288 89.163 74.6892 88.8763 74.4484C88.5896 74.2077 88.223 74.0833 87.8491 74.1C87.5874 74.0994 87.3288 74.1562 87.0915 74.2662C86.8541 74.3763 86.6437 74.537 86.4751 74.737C86.0539 75.2479 85.7856 75.8673 85.7011 76.524L84.5521 83.418H81.1801L83.1311 71.603C83.5432 71.5296 83.9615 71.4961 84.3801 71.503C84.8101 71.4616 85.2392 71.5901 85.5756 71.8611C85.912 72.1321 86.129 72.524 86.1801 72.953C86.6313 72.4396 87.1683 72.0085 87.7671 71.679C88.2449 71.4446 88.7708 71.3248 89.3031 71.329C89.8349 71.2904 90.3615 71.4556 90.7761 71.791C90.9467 71.9572 91.0796 72.1582 91.1658 72.3802C91.2521 72.6022 91.2897 72.8402 91.2761 73.078C91.29 73.551 91.1398 74.0142 90.8511 74.389C90.4494 74.832 89.9522 75.1777 89.3971 75.4Z" fill="white"/>
<path d="M102.736 82.968C101.87 83.5565 100.835 83.8455 99.789 83.791C99.287 83.8268 98.7829 83.7614 98.3067 83.5985C97.8305 83.4356 97.3919 83.1787 97.017 82.843C96.6836 82.4766 96.4277 82.0466 96.2644 81.5789C96.1012 81.1112 96.034 80.6153 96.067 80.121C96.0763 79.6852 96.118 79.2506 96.192 78.821L98.015 67.881C98.394 67.8117 98.7787 67.7782 99.164 67.781C99.6725 67.7463 100.176 67.9024 100.575 68.219C100.743 68.3812 100.874 68.5782 100.958 68.7961C101.043 69.0141 101.078 69.2478 101.063 69.481C101.063 69.581 101.063 69.681 101.05 69.781C101.037 69.881 101.029 69.981 101.012 70.081L100.787 71.53H103.987L103.562 74.102H100.362L99.562 79.002C99.4954 79.2886 99.4618 79.5818 99.462 79.876C99.462 80.7427 99.845 81.176 100.611 81.176C100.917 81.174 101.217 81.0826 101.472 80.913C101.825 80.6628 102.133 80.3552 102.384 80.003C103.184 80.3517 103.584 80.8427 103.584 81.476C103.568 81.7735 103.484 82.0633 103.336 82.3223C103.189 82.5813 102.984 82.8024 102.736 82.968Z" fill="white"/>
<path d="M109.279 83.792C108.643 83.8359 108.005 83.7426 107.408 83.5183C106.811 83.294 106.27 82.944 105.82 82.492C104.972 81.4633 104.548 80.1504 104.633 78.82C104.607 77.4461 104.893 76.0841 105.47 74.837C105.968 73.7494 106.766 72.8266 107.77 72.177C108.777 71.5521 109.944 71.2312 111.129 71.253C111.763 71.2142 112.398 71.3124 112.991 71.5408C113.584 71.7693 114.12 72.1227 114.564 72.577C115.419 73.5933 115.853 74.8982 115.776 76.224C115.803 77.6092 115.522 78.9831 114.952 80.246C114.47 81.3324 113.68 82.2532 112.679 82.894C111.654 83.5094 110.475 83.8209 109.279 83.792ZM107.954 78.972C107.92 79.5623 108.073 80.1482 108.392 80.646C108.524 80.8371 108.702 80.9922 108.909 81.097C109.117 81.2018 109.347 81.253 109.579 81.246C110.018 81.2263 110.443 81.0835 110.806 80.8338C111.168 80.5841 111.452 80.2377 111.627 79.834C112.209 78.6784 112.485 77.3926 112.427 76.1C112.462 75.5102 112.309 74.9246 111.99 74.427C111.858 74.2358 111.68 74.0808 111.473 73.976C111.266 73.8711 111.035 73.8199 110.803 73.827C110.364 73.8466 109.938 73.9894 109.576 74.2391C109.214 74.4888 108.929 74.8353 108.754 75.239C108.173 76.3941 107.897 77.6791 107.955 78.971L107.954 78.972Z" fill="white"/>
<path d="M130.782 75.349C130.608 74.8862 130.316 74.4771 129.934 74.163C129.546 73.918 129.092 73.8001 128.634 73.826C128.166 73.8418 127.713 73.9881 127.324 74.2484C126.935 74.5088 126.627 74.8727 126.434 75.299C125.829 76.4436 125.536 77.7273 125.585 79.021C125.551 79.6008 125.729 80.1732 126.085 80.632C126.251 80.8259 126.458 80.9796 126.692 81.0813C126.925 81.183 127.179 81.2301 127.434 81.219C127.953 81.2036 128.46 81.0554 128.906 80.7886C129.352 80.5219 129.723 80.1454 129.982 79.695C130.881 80.0624 131.331 80.5704 131.33 81.219C131.312 81.5171 131.226 81.8072 131.079 82.0671C130.932 82.327 130.727 82.55 130.481 82.719C129.495 83.4736 128.274 83.8538 127.034 83.792C126.385 83.8363 125.734 83.7434 125.123 83.5194C124.512 83.2954 123.955 82.9454 123.488 82.492C122.618 81.474 122.179 80.1567 122.264 78.82C122.239 77.4499 122.539 76.0933 123.138 74.861C123.663 73.7694 124.48 72.8445 125.499 72.189C126.505 71.5596 127.671 71.2339 128.858 71.251C129.479 71.186 130.106 71.2857 130.676 71.54C131.247 71.7944 131.74 72.1945 132.106 72.7C132.295 72.9816 132.399 73.3112 132.406 73.65C132.41 73.9874 132.285 74.3137 132.057 74.562C131.689 74.9068 131.255 75.1743 130.782 75.349Z" fill="white"/>
<path d="M138.203 72.651C138.677 72.1857 139.232 71.8094 139.839 71.54C140.37 71.3414 140.934 71.244 141.501 71.253C142.126 71.2327 142.743 71.398 143.274 71.728C143.75 72.0359 144.11 72.4932 144.298 73.028C144.475 73.5424 144.56 74.0841 144.548 74.628C144.539 75.2149 144.481 75.8 144.373 76.377L143.199 83.421H139.827L141 76.377C141.067 76.0395 141.101 75.6961 141.1 75.352C141.134 74.9735 141.017 74.5969 140.775 74.304C140.638 74.1863 140.479 74.097 140.308 74.0412C140.136 73.9854 139.955 73.9643 139.775 73.979C139.508 73.9807 139.244 74.0408 139.002 74.1552C138.76 74.2695 138.546 74.4353 138.375 74.641C137.953 75.1317 137.683 75.7351 137.6 76.377L136.427 83.421H133.055L135.978 65.811C136.357 65.7416 136.741 65.7081 137.126 65.711C137.635 65.676 138.138 65.8322 138.538 66.149C138.706 66.3112 138.837 66.508 138.921 66.7258C139.005 66.9436 139.04 67.1771 139.025 67.41C139.025 67.51 139.025 67.61 139.012 67.71C138.999 67.81 138.991 67.91 138.974 68.01L138.203 72.651Z" fill="white"/>
<path d="M153.015 82.119C152.648 82.638 152.161 83.0609 151.596 83.3519C151.031 83.643 150.404 83.7936 149.768 83.791C149.281 83.829 148.792 83.7517 148.34 83.5653C147.888 83.3788 147.487 83.0886 147.168 82.718C146.52 81.7084 146.222 80.5138 146.319 79.318C146.307 77.8874 146.636 76.4745 147.28 75.197C147.847 74.0161 148.718 73.0073 149.803 72.274C150.82 71.5978 152.017 71.2409 153.238 71.249C154.814 71.276 156.356 71.7152 157.709 72.523L156.409 80.391C156.358 80.663 156.333 80.9393 156.335 81.216C156.32 81.9316 156.438 82.6438 156.684 83.316C156.118 83.6239 155.481 83.7787 154.836 83.765C154.605 83.7928 154.371 83.7707 154.149 83.7003C153.927 83.6298 153.723 83.5127 153.551 83.3567C153.378 83.2007 153.241 83.0095 153.149 82.796C153.056 82.5825 153.011 82.3516 153.015 82.119ZM153.065 73.751C152.742 73.7585 152.423 73.8296 152.128 73.9604C151.832 74.0912 151.565 74.279 151.342 74.513C150.778 75.0704 150.358 75.7569 150.118 76.513C149.825 77.4032 149.681 78.3359 149.693 79.273C149.693 80.589 150.143 81.247 151.042 81.247C151.411 81.2463 151.769 81.1279 152.066 80.909C152.399 80.6662 152.673 80.3506 152.866 79.986C153.089 79.5775 153.241 79.1343 153.317 78.675L154.091 74.054C153.785 73.8566 153.429 73.7517 153.065 73.752V73.751Z" fill="white"/>
<path d="M162.108 83.418H158.732L160.68 71.604C161.092 71.5306 161.51 71.4971 161.929 71.504C162.332 71.4811 162.731 71.5907 163.065 71.816C163.376 72.08 163.599 72.4333 163.702 72.828C164.154 72.325 164.702 71.9171 165.314 71.628C165.9 71.3722 166.534 71.2444 167.174 71.253C167.799 71.2328 168.417 71.398 168.948 71.728C169.424 72.0356 169.785 72.493 169.972 73.028C170.149 73.5424 170.234 74.0841 170.222 74.628C170.215 75.2151 170.158 75.8006 170.052 76.378L168.878 83.422H165.505L166.68 76.378C166.747 76.0404 166.78 75.6971 166.78 75.353C166.814 74.9745 166.697 74.5979 166.455 74.305C166.318 74.1873 166.159 74.098 165.988 74.0422C165.816 73.9864 165.635 73.9653 165.455 73.98C165.188 73.9819 164.924 74.0421 164.682 74.1565C164.44 74.2708 164.226 74.4365 164.055 74.642C163.634 75.1327 163.365 75.7363 163.283 76.378L162.108 83.418Z" fill="white"/>
<path d="M175.52 89.088C174.801 89.1048 174.083 89.0248 173.385 88.85C172.839 88.6976 172.332 88.4291 171.899 88.063C171.677 87.8959 171.494 87.6826 171.363 87.438C171.25 87.2047 171.195 86.948 171.2 86.689C171.208 86.3485 171.317 86.0181 171.513 85.74C171.735 85.4103 172.03 85.1364 172.375 84.94C172.724 85.4461 173.196 85.8558 173.746 86.1308C174.296 86.4058 174.907 86.5373 175.521 86.513C175.899 86.5304 176.276 86.4671 176.627 86.3273C176.978 86.1874 177.295 85.9742 177.557 85.702C178.12 85.0348 178.465 84.2105 178.544 83.341L178.694 82.317C178.303 82.7383 177.825 83.0705 177.294 83.291C176.757 83.5214 176.179 83.6405 175.594 83.641C173.194 83.641 171.994 82.1503 171.994 79.169C171.981 77.7591 172.32 76.3683 172.981 75.123C173.574 73.9614 174.461 72.9752 175.553 72.262C176.584 71.5958 177.786 71.2442 179.013 71.25C180.618 71.2382 182.194 71.6798 183.559 72.524L181.91 82.491C181.716 84.3215 180.972 86.0503 179.775 87.449C179.218 88.0023 178.552 88.4338 177.82 88.7159C177.087 88.9981 176.304 89.1248 175.52 89.088ZM180.02 74.05C179.665 73.8403 179.257 73.7362 178.845 73.75C178.195 73.7641 177.576 74.0331 177.122 74.499C176.563 75.0398 176.143 75.7082 175.899 76.447C175.605 77.3071 175.461 78.2112 175.473 79.12C175.473 80.4353 175.948 81.093 176.897 81.093C177.285 81.0963 177.665 80.9789 177.984 80.757C178.324 80.5143 178.606 80.1982 178.807 79.832C179.038 79.4259 179.195 78.982 179.27 78.521L180.02 74.05Z" fill="white"/>
<path d="M193.056 79.67C193.905 80.0874 194.33 80.6124 194.33 81.245C194.314 81.5587 194.219 81.8633 194.053 82.1299C193.887 82.3965 193.656 82.6165 193.381 82.769C192.283 83.4845 190.99 83.8419 189.681 83.792C189.02 83.8374 188.357 83.7454 187.734 83.5216C187.11 83.2978 186.54 82.9473 186.059 82.492C185.173 81.4814 184.724 80.1611 184.81 78.82C184.786 77.4418 185.099 76.0786 185.722 74.849C186.273 73.744 187.126 72.8173 188.181 72.176C189.241 71.5527 190.452 71.2331 191.681 71.252C192.638 71.2038 193.577 71.5161 194.315 72.127C194.64 72.4134 194.896 72.7683 195.067 73.1661C195.238 73.5638 195.318 73.9945 195.302 74.4271C195.332 75.0808 195.191 75.731 194.893 76.3136C194.595 76.8962 194.15 77.391 193.602 77.749C192.184 78.5903 190.548 78.9903 188.902 78.898C188.52 78.898 188.236 78.89 188.053 78.873V79.023C188.038 79.3211 188.082 79.6192 188.183 79.9001C188.284 80.1811 188.439 80.4393 188.64 80.66C188.831 80.8606 189.062 81.0188 189.318 81.1242C189.574 81.2296 189.849 81.28 190.126 81.272C190.666 81.2784 191.198 81.1495 191.675 80.897C192.214 80.5863 192.684 80.1688 193.056 79.67ZM189.034 76.898C189.843 76.9253 190.643 76.7266 191.345 76.324C191.623 76.183 191.857 75.9688 192.022 75.7044C192.187 75.4401 192.277 75.1357 192.282 74.824C192.29 74.6822 192.269 74.5401 192.22 74.4069C192.17 74.2737 192.094 74.1521 191.995 74.05C191.762 73.8532 191.462 73.7549 191.158 73.776C190.819 73.7768 190.483 73.8508 190.175 73.993C189.867 74.1352 189.593 74.3423 189.372 74.6C188.815 75.2484 188.441 76.0327 188.286 76.873C188.485 76.89 188.734 76.898 189.034 76.898Z" fill="white"/>
</svg>
