<svg width="200" height="58" viewBox="0 0 200 58" fill="none" xmlns="http://www.w3.org/2000/svg">
<path d="M75.594 46.0401C75.3499 47.5813 75.2222 49.1387 75.212 50.6991C75.1799 52.189 75.3338 53.6772 75.67 55.1291C73.5666 55.7773 71.379 56.1119 69.178 56.1221C67.4144 56.2418 65.6475 55.9409 64.023 55.2441C62.8308 54.4788 61.93 53.3354 61.465 51.9971C60.2398 53.4348 58.7319 54.6051 57.035 55.4351C55.2409 56.1555 53.3162 56.4937 51.384 56.4281C49.8508 56.4753 48.3287 56.153 46.9463 55.4883C45.5638 54.8236 44.3616 53.8361 43.441 52.6091C41.4557 50.0631 40.463 46.6007 40.463 42.2221C40.3884 37.744 41.4388 33.3189 43.518 29.3521C45.4112 25.7089 48.2976 22.6766 51.843 20.6061C55.4946 18.534 59.6351 17.479 63.833 17.5511C66.7027 17.5049 69.5659 17.8388 72.348 18.5441C74.9259 19.2783 77.3828 20.385 79.641 21.8291L75.594 46.0401ZM63.756 29.7721C63.1345 29.399 62.4186 29.2129 61.694 29.2361C61.0267 29.2424 60.3691 29.3963 59.7683 29.6868C59.1675 29.9772 58.6384 30.397 58.219 30.9161C57.1339 32.2089 56.3396 33.7201 55.89 35.3471C55.3372 37.1282 55.054 38.9821 55.05 40.8471C55.05 43.8511 56.0937 45.3511 58.181 45.3471C60.1143 45.3471 61.2853 44.1764 61.694 41.8351L63.756 29.7721Z" fill="#86579F"/>
<path d="M88.08 1.81902C90.0127 1.40681 91.9838 1.20198 93.96 1.20802C96.5566 1.20802 98.504 1.73002 99.802 2.77402C100.48 3.37626 101.009 4.1279 101.347 4.96959C101.685 5.81129 101.822 6.72001 101.749 7.62401C101.748 7.84087 101.735 8.05752 101.711 8.27302C101.684 8.50202 101.646 8.77302 101.596 9.07302L99.612 20.225C100.7 19.3035 101.956 18.6028 103.312 18.162C104.812 17.7271 106.37 17.5211 107.932 17.551C109.486 17.4902 111.031 17.8015 112.44 18.459C113.849 19.1165 115.081 20.1012 116.032 21.331C118.018 23.851 119.011 27.326 119.01 31.756C119.092 36.263 118.029 40.7172 115.922 44.702C114.013 48.3363 111.114 51.355 107.559 53.408C103.874 55.4636 99.7104 56.505 95.492 56.426C92.5715 56.4779 89.657 56.144 86.824 55.433C84.2425 54.7008 81.7823 53.594 79.522 52.148L88.08 1.81902ZM95.488 44.434C96.1441 44.7899 96.8795 44.9743 97.626 44.97C98.3175 44.9639 98.9988 44.8029 99.6199 44.4988C100.241 44.1948 100.786 43.7554 101.215 43.213C102.326 41.8686 103.146 40.3079 103.622 38.63C104.194 36.8266 104.49 34.947 104.5 33.055C104.5 29.9503 103.405 28.3973 101.216 28.396C99.2306 28.396 98.0343 29.5924 97.627 31.985L95.488 44.434Z" fill="#86579F"/>
<path d="M8.554 1.81902C10.4867 1.40681 12.4578 1.20198 14.434 1.20802C17.0307 1.20802 18.978 1.73002 20.276 2.77402C20.9542 3.37626 21.4831 4.1279 21.821 4.96959C22.1589 5.81129 22.2965 6.72001 22.223 7.62401C22.222 7.84087 22.2093 8.05752 22.185 8.27302C22.158 8.50202 22.12 8.77302 22.07 9.07302L20.086 20.225C21.1736 19.3035 22.4303 18.6028 23.786 18.162C25.2865 17.7271 26.844 17.5211 28.406 17.551C29.9596 17.4902 31.5053 17.8015 32.9143 18.459C34.3232 19.1165 35.5547 20.1012 36.506 21.331C38.4913 23.851 39.484 27.326 39.484 31.756C39.5642 36.2631 38.5 40.717 36.391 44.701C34.4824 48.3353 31.5826 51.354 28.028 53.407C24.3434 55.4626 20.1795 56.504 15.961 56.425C13.0406 56.4769 10.1261 56.143 7.293 55.432C4.71471 54.6993 2.25763 53.5929 0 52.148L8.554 1.81902ZM15.962 44.434C16.6181 44.7899 17.3536 44.9743 18.1 44.97C18.7915 44.9639 19.4728 44.8029 20.0939 44.4988C20.715 44.1948 21.26 43.7554 21.689 43.213C22.8015 41.8689 23.6226 40.3082 24.1 38.63C24.6722 36.8266 24.9683 34.947 24.978 33.055C24.978 29.9503 23.8833 28.3973 21.694 28.396C19.7087 28.396 18.5123 29.5924 18.105 31.985L15.962 44.434Z" fill="#86579F"/>
<path d="M124.679 19.94C126.663 19.5231 128.685 19.3186 130.712 19.33C135.955 19.33 138.577 21.468 138.578 25.744C138.578 25.9865 138.566 26.2289 138.54 26.47C138.513 26.699 138.475 26.942 138.425 27.196L134.988 47.358C134.704 48.8694 134.551 50.4024 134.53 51.94C134.502 53.2032 134.657 54.4638 134.988 55.683C132.62 56.7778 130.036 57.3247 127.427 57.283C124.627 57.283 122.616 56.7867 121.394 55.794C120.172 54.8014 119.561 53.185 119.561 50.945C119.563 50.6001 119.589 50.2556 119.637 49.914C119.686 49.5314 119.737 49.162 119.79 48.806L124.679 19.94ZM125.901 9.24803C125.843 8.13863 126.017 7.02934 126.411 5.99081C126.806 4.95229 127.412 4.0073 128.192 3.21603C129.013 2.46002 129.975 1.87477 131.024 1.49433C132.073 1.1139 133.187 0.945871 134.302 1.00003C136.09 0.945616 137.83 1.58939 139.152 2.79503C139.769 3.33121 140.262 3.99449 140.598 4.73933C140.934 5.48416 141.105 6.29291 141.099 7.11003C141.157 8.2196 140.983 9.32908 140.589 10.3678C140.194 11.4065 139.588 12.3517 138.808 13.143C137.987 13.8989 137.024 14.484 135.975 14.8643C134.927 15.2445 133.812 15.4124 132.698 15.358C130.896 15.4267 129.14 14.7821 127.81 13.564C127.203 13.0222 126.718 12.3568 126.389 11.6124C126.06 10.868 125.893 10.0619 125.901 9.24803Z" fill="#86579F"/>
<path d="M147.552 1.81898C149.535 1.40091 151.558 1.19574 153.585 1.20698C156.182 1.20698 158.129 1.72931 159.427 2.77398C160.104 3.37641 160.633 4.12802 160.97 4.96951C161.307 5.81101 161.445 6.71938 161.371 7.62298C161.372 7.85254 161.359 8.08196 161.333 8.30998C161.307 8.50998 161.269 8.76798 161.218 9.07398L154.956 46.267C154.853 47.0296 154.751 47.7553 154.651 48.444C154.548 49.1393 154.497 49.8412 154.498 50.544C154.46 51.9081 154.614 53.2709 154.956 54.592C152.588 55.6869 150.004 56.2338 147.395 56.192C144.595 56.192 142.584 55.6953 141.362 54.702C140.14 53.7086 139.529 52.0923 139.529 49.853C139.555 48.9549 139.657 48.0607 139.834 47.18L147.552 1.81898Z" fill="#86579F"/>
<path d="M195.951 46.0401C195.708 47.5813 195.58 49.1387 195.57 50.6991C195.538 52.189 195.692 53.677 196.027 55.1291C193.924 55.7774 191.737 56.112 189.536 56.1221C187.772 56.2418 186.005 55.9409 184.38 55.2441C183.188 54.4783 182.288 53.335 181.823 51.9971C180.598 53.4348 179.09 54.6051 177.393 55.4351C175.598 56.1553 173.674 56.4935 171.741 56.4281C170.208 56.4753 168.686 56.1529 167.303 55.4883C165.921 54.8236 164.719 53.8361 163.798 52.6091C161.812 50.0631 160.819 46.6007 160.82 42.2221C160.746 37.7443 161.796 33.3195 163.875 29.3531C165.768 25.7099 168.655 22.6775 172.2 20.6071C175.852 18.5348 179.992 17.4798 184.19 17.5521C187.06 17.5059 189.923 17.8398 192.705 18.5451C195.283 19.2793 197.74 20.386 199.998 21.8301L195.951 46.0401ZM184.114 29.7721C183.492 29.3991 182.777 29.213 182.052 29.2361C181.385 29.2423 180.727 29.3962 180.126 29.6866C179.525 29.9771 178.996 30.3969 178.576 30.9161C177.492 32.2092 176.698 33.7203 176.248 35.3471C175.695 37.1282 175.412 38.9821 175.408 40.8471C175.408 43.8511 176.452 45.3511 178.539 45.3471C180.472 45.3471 181.643 44.1764 182.052 41.8351L184.114 29.7721Z" fill="#86579F"/>
</svg>
