<svg width="105" height="30" viewBox="0 0 105 30" fill="none" xmlns="http://www.w3.org/2000/svg">
<path d="M39.8078 23.7054C39.6811 24.4992 39.6147 25.3013 39.6091 26.1049C39.5925 26.8723 39.6725 27.6388 39.8474 28.3866C38.7537 28.7204 37.6163 28.8928 36.4719 28.898C35.5548 28.9599 34.6359 28.8049 33.7912 28.4457C33.1713 28.0517 32.7027 27.463 32.4606 26.7738C31.8238 27.5145 31.0397 28.1171 30.1572 28.5441C29.2243 28.9154 28.2234 29.0895 27.2187 29.0555C26.4214 29.0798 25.63 28.9138 24.9112 28.5714C24.1923 28.229 23.5672 27.7204 23.0885 27.0884C22.056 25.777 21.5397 23.9938 21.5397 21.7388C21.501 19.4322 22.0471 17.1528 23.1281 15.1094C24.1127 13.2331 25.6135 11.6714 27.457 10.6051C29.3559 9.5375 31.5092 8.99412 33.6924 9.03164C35.1848 9.00754 36.6738 9.17951 38.1206 9.54305C39.4611 9.92114 40.7387 10.4911 41.9131 11.2348L39.8078 23.7054ZM33.6533 15.3261C33.3302 15.1337 32.9579 15.0379 32.5811 15.0502C32.2341 15.0534 31.8921 15.1327 31.5796 15.2823C31.2672 15.4319 30.992 15.6481 30.7739 15.9155C30.2096 16.5812 29.7966 17.3594 29.5628 18.1972C29.2755 19.1145 29.1282 20.0691 29.1257 21.0295C29.1257 22.5776 29.6684 23.3512 30.7538 23.3505C31.7596 23.3505 32.3685 22.7473 32.5806 21.541L33.6533 15.3261Z" fill="#F5D9FF"/>
<path d="M46.3005 0.927133C47.3057 0.714762 48.3308 0.609474 49.3585 0.613065C50.7088 0.613065 51.7215 0.881942 52.3964 1.4197C52.749 1.72988 53.024 2.11699 53.1997 2.55048C53.3754 2.98397 53.447 3.45198 53.4089 3.91758C53.4083 4.02935 53.4016 4.14101 53.3888 4.25206C53.3751 4.36984 53.355 4.50803 53.3291 4.66506L52.2966 10.4094C52.8628 9.93452 53.517 9.57358 54.2227 9.34676C55.0031 9.12293 55.8131 9.01705 56.6254 9.0327C57.4329 9.00169 58.2362 9.16221 58.9684 9.50092C59.7006 9.83962 60.3405 10.3467 60.8348 10.9799C61.8674 12.2781 62.3836 14.0681 62.3836 16.35C62.4253 18.6717 61.8719 20.9659 60.7751 23.0181C59.7828 24.8902 58.275 26.4453 56.4267 27.503C54.5104 28.561 52.3451 29.0965 50.1517 29.055C48.633 29.082 47.1174 28.9101 45.6442 28.5436C44.3034 28.1664 43.0256 27.5964 41.8517 26.8519L46.3005 0.927133ZM50.1527 22.8789C50.4934 23.0616 50.8751 23.1563 51.2624 23.1542C51.622 23.1511 51.9764 23.0682 52.2994 22.9116C52.6223 22.755 52.9058 22.5286 53.1288 22.2492C53.7061 21.5566 54.132 20.753 54.3796 19.889C54.6772 18.9601 54.8311 17.9919 54.8362 17.0173C54.8362 15.418 54.2669 14.6182 53.1283 14.6179C52.0958 14.6179 51.4736 15.2341 51.2619 16.4667L50.1527 22.8789Z" fill="#F5D9FF"/>
<path d="M4.94668 0.927138C5.95264 0.714406 6.97869 0.608941 8.00731 0.612547C9.3576 0.612547 10.3702 0.881423 11.0452 1.41918C11.3978 1.72936 11.6728 2.11647 11.8485 2.54997C12.0242 2.98346 12.0958 3.45147 12.0577 3.91706C12.057 4.02883 12.0503 4.14049 12.0376 4.25154C12.0238 4.36932 12.0038 4.50751 11.9779 4.66454L10.9438 10.4088C11.5095 9.93356 12.1634 9.57209 12.8688 9.34468C13.6492 9.12084 14.4592 9.01496 15.2715 9.03061C16.079 8.9996 16.8823 9.16013 17.6145 9.49883C18.3467 9.83753 18.9866 10.3446 19.481 10.9778C20.5135 12.276 21.0298 14.066 21.0298 16.3479C21.0715 18.6697 20.5181 20.9642 19.4212 23.0166C18.4289 24.8887 16.9212 26.4438 15.0729 27.5015C13.1573 28.5596 10.9928 29.0957 8.79994 29.055C7.28127 29.082 5.76567 28.9101 4.29249 28.5436C2.95164 28.1664 1.67388 27.5964 0.5 26.8519L4.94668 0.927138ZM8.79994 22.8789C9.14059 23.0616 9.52225 23.1563 9.90963 23.1542C10.2692 23.1511 10.6236 23.0682 10.9466 22.9116C11.2695 22.755 11.553 22.5286 11.776 22.2492C12.3535 21.5567 12.7796 20.753 13.0273 19.889C13.3249 18.9601 13.4788 17.9919 13.4839 17.0174C13.4839 15.418 12.9146 14.6182 11.776 14.6179C10.7435 14.6179 10.1214 15.2341 9.90963 16.4667L8.79994 22.8789Z" fill="#F5D9FF"/>
<path d="M65.3317 10.2612C66.3634 10.0465 67.4153 9.94121 68.4695 9.94716C71.1958 9.94716 72.5593 11.0487 72.56 13.2517C72.5602 13.3765 72.5533 13.5013 72.5394 13.6254C72.5262 13.7432 72.5061 13.8683 72.4797 13.9986L70.6931 24.3848C70.5451 25.1631 70.4654 25.9526 70.4548 26.7445C70.4402 27.3953 70.5205 28.0448 70.6931 28.6729C69.4618 29.2375 68.1178 29.5198 66.7611 29.4989C65.3051 29.4989 64.2595 29.2431 63.6244 28.7315C62.9892 28.22 62.6722 27.3875 62.6732 26.2342C62.6745 26.0564 62.6877 25.8789 62.7129 25.7029C62.7387 25.5061 62.7657 25.3161 62.7916 25.1323L65.3317 10.2612ZM65.9658 4.75352C65.9357 4.18196 66.0261 3.61044 66.2313 3.07539C66.4365 2.54034 66.7519 2.05348 67.1574 1.64582C67.5844 1.25634 68.0854 0.954918 68.6312 0.759099C69.177 0.563281 69.7566 0.476984 70.3364 0.505235C71.2663 0.477233 72.1706 0.808761 72.858 1.42964C73.1785 1.70583 73.4349 2.0474 73.6097 2.43093C73.7844 2.81446 73.8734 3.23089 73.8705 3.65167C73.9006 4.22332 73.8102 4.79492 73.6051 5.33007C73.3999 5.86521 73.0845 6.35216 72.6789 6.75989C72.2521 7.14918 71.7513 7.4505 71.2059 7.64631C70.6604 7.84212 70.081 7.92852 69.5015 7.90048C68.5646 7.93591 67.6514 7.60372 66.9603 6.97608C66.6447 6.69708 66.3929 6.35451 66.2217 5.9713C66.0506 5.58808 65.964 5.17307 65.9679 4.75405L65.9658 4.75352Z" fill="#F5D9FF"/>
<path d="M77.226 0.927117C78.2575 0.712159 79.3092 0.606873 80.3632 0.61305C81.7135 0.61305 82.7261 0.881927 83.4011 1.41968C83.7538 1.72979 84.0289 2.11689 84.2046 2.5504C84.3803 2.98391 84.4519 3.45196 84.4136 3.91757C84.4143 4.03581 84.4076 4.154 84.3935 4.27141C84.3801 4.3761 84.3602 4.50731 84.3338 4.66505L81.0776 23.8232C81.0241 24.2165 80.9713 24.5902 80.9191 24.9444C80.866 25.3026 80.8397 25.6643 80.8404 26.0264C80.8202 26.7291 80.9005 27.4312 81.0787 28.1118C79.8473 28.6762 78.5033 28.9583 77.1467 28.9372C75.6907 28.9372 74.645 28.6815 74.0095 28.1699C73.3739 27.6583 73.0569 26.8258 73.0583 25.6725C73.0716 25.2098 73.1246 24.7491 73.2168 24.2953L77.226 0.927117Z" fill="#F5D9FF"/>
<path d="M102.395 23.7054C102.268 24.4992 102.202 25.3013 102.197 26.1049C102.18 26.8723 102.26 27.6387 102.434 28.3866C101.341 28.7204 100.204 28.8928 99.0593 28.898C98.142 28.9599 97.223 28.8049 96.3781 28.4457C95.7582 28.0517 95.2896 27.463 95.0476 26.7738C94.4109 27.5144 93.627 28.1171 92.7447 28.5441C91.8118 28.9153 90.8109 29.0895 89.8061 29.0555C89.0089 29.0798 88.2175 28.9138 87.4986 28.5714C86.7798 28.229 86.1547 27.7204 85.676 27.0884C84.6434 25.777 84.1272 23.9938 84.1272 21.7388C84.0885 19.4322 84.6346 17.1528 85.7156 15.1094C86.6999 13.2331 88.2006 11.6714 90.0439 10.6051C91.9429 9.53764 94.0962 8.99426 96.2793 9.03164C97.7717 9.00757 99.2607 9.17953 100.708 9.54304C102.048 9.92114 103.326 10.4911 104.5 11.2348L102.395 23.7054ZM96.2397 15.3261C95.9165 15.1338 95.5443 15.038 95.1675 15.0502C94.8204 15.0534 94.4783 15.1326 94.1658 15.2822C93.8532 15.4318 93.578 15.6481 93.3598 15.9155C92.7959 16.5813 92.383 17.3595 92.1492 18.1972C91.8617 19.1144 91.7144 20.0691 91.7122 21.0295C91.7122 22.5776 92.2548 23.3512 93.3402 23.3505C94.3456 23.3505 94.9546 22.7473 95.167 21.541L96.2397 15.3261Z" fill="#F5D9FF"/>
</svg>
