<svg width="93" height="27" viewBox="0 0 93 27" fill="none" xmlns="http://www.w3.org/2000/svg">
<path d="M34.893 21.126C34.7804 21.8329 34.7216 22.5473 34.717 23.263C34.7024 23.9462 34.7737 24.6286 34.929 25.294C33.9566 25.5915 32.9459 25.7448 31.929 25.749C31.1152 25.8049 30.2998 25.6679 29.549 25.349C28.9992 24.9994 28.5832 24.4749 28.368 23.86C27.8015 24.5202 27.1055 25.057 26.323 25.437C25.4941 25.7674 24.6058 25.9223 23.714 25.892C23.0075 25.9143 22.3059 25.7669 21.6681 25.4622C21.0303 25.1576 20.4747 24.7045 20.048 24.141C19.0642 22.7545 18.5795 21.0755 18.673 19.378C18.6392 17.3241 19.1241 15.2948 20.083 13.478C20.9595 11.8049 22.2919 10.4143 23.926 9.46703C25.6137 8.51655 27.5243 8.03329 29.461 8.06703C30.7856 8.04567 32.1073 8.19865 33.392 8.52203C34.5826 8.85723 35.7182 9.36386 36.763 10.026L34.893 21.126ZM29.429 13.666C29.1417 13.4947 28.8113 13.4094 28.477 13.42C28.1701 13.4234 27.8677 13.4942 27.5912 13.6274C27.3147 13.7606 27.0708 13.9531 26.877 14.191C26.3751 14.7837 26.0074 15.4779 25.799 16.226C25.5438 17.0424 25.413 17.8926 25.411 18.748C25.411 20.126 25.8927 20.8147 26.856 20.814C27.7487 20.814 28.2893 20.277 28.478 19.203L29.429 13.666Z" fill="white"/>
<path d="M40.6581 0.849987C41.5506 0.660951 42.4607 0.567093 43.3731 0.569987C44.3281 0.499709 45.2791 0.752591 46.0731 1.28799C46.3859 1.56303 46.6301 1.90732 46.7864 2.29343C46.9426 2.67954 47.0065 3.09681 46.9731 3.51199C46.9725 3.61224 46.9665 3.71239 46.9551 3.81199C46.9431 3.91699 46.9251 4.03999 46.9021 4.17999L45.982 9.28999C46.4854 8.86681 47.0661 8.54551 47.6921 8.34399C48.3851 8.14454 49.1041 8.05016 49.8251 8.06399C50.5408 8.03592 51.253 8.17853 51.9028 8.48003C52.5526 8.78154 53.1213 9.23329 53.562 9.79799C54.551 11.1888 55.036 12.8753 54.937 14.579C54.9737 16.6472 54.4822 18.6906 53.509 20.516C52.6258 22.1852 51.2874 23.5697 49.649 24.509C47.9464 25.4521 46.0251 25.9295 44.079 25.893C42.7316 25.9168 41.3868 25.7638 40.079 25.438C38.8872 25.102 37.7509 24.5936 36.7061 23.929L40.6581 0.849987ZM44.078 20.394C44.3813 20.5574 44.7206 20.642 45.065 20.64C45.3838 20.6374 45.698 20.5637 45.9846 20.4243C46.2713 20.2848 46.5232 20.0832 46.7221 19.834C47.2339 19.2187 47.6119 18.5035 47.8321 17.734C48.0961 16.9072 48.2326 16.0449 48.2371 15.177C48.2371 13.753 47.7317 13.0407 46.7211 13.04C45.8044 13.04 45.252 13.5887 45.064 14.686L44.078 20.394Z" fill="white"/>
<path d="M3.948 0.850034C4.84049 0.660326 5.75058 0.565797 6.663 0.568034C7.61806 0.497755 8.56901 0.750638 9.363 1.28603C9.67581 1.56107 9.92007 1.90536 10.0763 2.29148C10.2326 2.67759 10.2965 3.09485 10.263 3.51003C10.2625 3.61029 10.2565 3.71044 10.245 3.81003C10.233 3.91503 10.215 4.03803 10.192 4.17803L9.272 9.29003C9.7753 8.86685 10.3561 8.54556 10.982 8.34403C11.675 8.14459 12.394 8.0502 13.115 8.06403C13.8308 8.03597 14.543 8.17858 15.1927 8.48008C15.8425 8.78159 16.4113 9.23334 16.852 9.79803C17.8409 11.1889 18.326 12.8753 18.227 14.579C18.2638 16.6469 17.7727 18.6899 16.8 20.515C15.9168 22.1842 14.5783 23.5688 12.94 24.508C11.2373 25.4512 9.31607 25.9285 7.37 25.892C6.02251 25.9159 4.67771 25.7629 3.37 25.437C2.17927 25.101 1.04396 24.593 0 23.929L3.948 0.850034ZM7.368 20.394C7.6712 20.5574 8.01059 20.642 8.355 20.64C8.67377 20.6375 8.98794 20.5638 9.2746 20.4243C9.56126 20.2849 9.81318 20.0832 10.012 19.834C10.5238 19.2187 10.9019 18.5035 11.122 17.734C11.386 16.9072 11.5226 16.045 11.527 15.177C11.527 13.753 11.0217 13.0407 10.011 13.04C9.09433 13.04 8.542 13.5887 8.354 14.686L7.368 20.394Z" fill="white"/>
<path d="M57.5479 9.15903C58.4638 8.96769 59.3973 8.87384 60.3329 8.87903C62.7529 8.87903 63.9633 9.85969 63.964 11.821C63.964 11.9323 63.958 12.0434 63.9459 12.154C63.9339 12.259 63.916 12.37 63.893 12.487L62.3069 21.734C62.1757 22.4266 62.1048 23.1292 62.0949 23.834C62.0824 24.4136 62.1538 24.9919 62.3069 25.551C61.2131 26.0537 60.0206 26.3049 58.8169 26.286C57.8388 26.3709 56.8599 26.1308 56.0319 25.603C55.7301 25.3218 55.4968 24.9751 55.3501 24.5895C55.2034 24.2039 55.1473 23.7898 55.1859 23.379C55.187 23.2208 55.1987 23.0627 55.2209 22.906C55.2436 22.7307 55.2673 22.5614 55.2919 22.398L57.5479 9.15903ZM58.1119 4.25903C58.0855 3.74952 58.1659 3.24011 58.3481 2.76357C58.5304 2.28702 58.8103 1.85389 59.1699 1.49203C59.55 1.14403 59.9952 0.874804 60.48 0.699901C60.9647 0.524998 61.4793 0.447888 61.994 0.473028C62.8186 0.44759 63.6211 0.742555 64.2329 1.29603C64.5174 1.54097 64.7452 1.84481 64.9006 2.18652C65.056 2.52824 65.1353 2.89965 65.1329 3.27503C65.1595 3.78454 65.0791 4.29397 64.8968 4.77052C64.7146 5.24708 64.4347 5.6802 64.0749 6.04203C63.6951 6.389 63.2504 6.6574 62.7665 6.83177C62.2825 7.00614 61.7688 7.08303 61.255 7.05803C60.4242 7.08974 59.6141 6.79423 58.9989 6.23503C58.7191 5.98738 58.4956 5.68257 58.3436 5.34116C58.1916 4.99976 58.1147 4.62972 58.1179 4.25603" fill="white"/>
<path d="M68.111 0.851056C69.0268 0.659185 69.9603 0.564991 70.896 0.570056C71.851 0.499541 72.8021 0.752444 73.596 1.28806C73.9088 1.5631 74.153 1.90738 74.3093 2.2935C74.4655 2.67961 74.5295 3.09687 74.496 3.51206C74.4963 3.61732 74.4903 3.72252 74.478 3.82706C74.466 3.92106 74.448 4.03706 74.425 4.17706L71.534 21.2341C71.4866 21.5841 71.4396 21.9174 71.393 22.2341C71.3458 22.5529 71.3224 22.8748 71.323 23.1971C71.3054 23.8226 71.3768 24.4475 71.535 25.0531C70.4412 25.5561 69.2487 25.8076 68.045 25.7891C67.0668 25.874 66.0879 25.6339 65.26 25.1061C64.9581 24.8249 64.7248 24.4781 64.5781 24.0925C64.4314 23.7069 64.3753 23.2928 64.414 22.8821C64.4229 22.4687 64.4674 22.0568 64.547 21.6511L68.111 0.851056Z" fill="white"/>
<path d="M90.452 21.126C90.3396 21.8329 90.2808 22.5473 90.276 23.263C90.2613 23.9462 90.3322 24.6285 90.487 25.294C89.5146 25.5916 88.5038 25.7449 87.487 25.749C86.6732 25.8048 85.8578 25.6678 85.107 25.349C84.5575 24.9991 84.1416 24.4747 83.926 23.86C83.3595 24.5202 82.6634 25.057 81.881 25.437C81.0521 25.7673 80.1637 25.9222 79.272 25.892C78.5655 25.9143 77.8639 25.7669 77.2261 25.4622C76.5883 25.1576 76.0327 24.7045 75.606 24.141C74.6222 22.7545 74.1375 21.0755 74.231 19.378C74.1971 17.3241 74.6821 15.2948 75.641 13.478C76.5175 11.8049 77.8499 10.4143 79.484 9.46703C81.1717 8.51651 83.0823 8.03324 85.019 8.06703C86.3436 8.04567 87.6653 8.19865 88.95 8.52203C90.1394 8.85853 91.2736 9.36617 92.317 10.029L90.452 21.126ZM84.988 13.666C84.7007 13.4948 84.3703 13.4094 84.036 13.42C83.7291 13.4234 83.4266 13.4942 83.1501 13.6274C82.8736 13.7606 82.6298 13.9531 82.436 14.191C81.9357 14.7832 81.5691 15.4763 81.361 16.223C81.1058 17.0394 80.975 17.8896 80.973 18.745C80.973 20.123 81.4546 20.8117 82.418 20.811C83.3106 20.811 83.8513 20.274 84.04 19.2L84.988 13.666Z" fill="white"/>
</svg>
